<?xml version="1.0" standalone="no"?>
<!DOCTYPE svg PUBLIC "-//W3C//DTD SVG 20010904//EN"
 "http://www.w3.org/TR/2001/REC-SVG-20010904/DTD/svg10.dtd">
<svg version="1.0" xmlns="http://www.w3.org/2000/svg"
 width="700.000000pt" height="700.000000pt" viewBox="0 0 700.000000 700.000000"
 preserveAspectRatio="xMidYMid meet">
<metadata>
Created by potrace 1.11, written by Peter Selinger 2001-2013
</metadata>
<g transform="translate(0.000000,700.000000) scale(0.100000,-0.100000)"
fill="#000000" stroke="none">
<path d="M6010 6997 c-3 -3 -21 -8 -40 -11 -19 -3 -46 -8 -60 -11 -14 -2 -47
-9 -75 -15 -27 -5 -68 -13 -90 -16 -22 -3 -43 -8 -46 -10 -4 -2 -24 -6 -45
-10 -95 -14 -321 -78 -391 -110 -17 -7 -36 -14 -42 -14 -6 0 -19 -4 -29 -9 -9
-6 -60 -31 -112 -57 -126 -61 -248 -134 -340 -203 -91 -68 -113 -92 -147 -156
-22 -42 -27 -64 -27 -130 -1 -44 2 -99 6 -122 l7 -41 -27 8 c-15 4 -64 22
-110 39 -97 36 -138 39 -190 12 -20 -11 -107 -75 -192 -143 -86 -68 -197 -155
-247 -195 -99 -78 -116 -108 -93 -167 6 -16 9 -30 8 -30 -2 -1 -34 -26 -71
-56 -69 -53 -69 -53 -97 -37 -15 10 -43 17 -62 17 -32 0 -56 -16 -248 -168
-19 -15 -251 -197 -515 -405 -264 -207 -487 -383 -495 -390 -8 -6 -46 -36 -83
-66 -102 -80 -101 -78 -107 -342 l-5 -226 -160 88 c-88 49 -170 89 -182 89
-39 0 -66 -16 -183 -109 -63 -50 -128 -101 -145 -113 -69 -52 -183 -177 -214
-233 -36 -67 -68 -174 -75 -250 -3 -27 -8 -129 -11 -225 -3 -96 -8 -213 -10
-260 -2 -47 -7 -164 -10 -260 -3 -96 -8 -218 -10 -270 -2 -52 -7 -162 -10
-245 -3 -82 -7 -211 -10 -285 -3 -74 -8 -183 -10 -241 l-4 -107 -74 -108
c-239 -352 -405 -741 -496 -1164 -29 -138 -27 -183 9 -212 45 -36 97 -36 137
2 22 20 37 61 48 135 10 71 72 297 116 420 85 242 212 493 363 714 38 57 75
105 82 108 6 2 61 -5 120 -16 136 -25 155 -29 229 -41 33 -5 71 -12 85 -15 77
-16 130 1 152 50 8 18 17 23 32 19 12 -2 52 -10 91 -17 67 -13 70 -14 76 -46
11 -55 41 -77 124 -90 41 -7 77 -13 80 -13 2 0 22 -4 42 -8 113 -26 348 -62
415 -65 207 -8 397 87 537 270 25 33 50 65 56 71 5 6 21 26 35 44 23 30 146
186 173 220 15 19 471 595 549 695 90 115 100 197 31 271 -25 26 -119 94 -220
159 -18 11 -32 23 -33 28 0 4 21 8 48 8 26 1 61 2 77 4 17 1 84 5 150 9 291
16 299 17 335 37 19 11 69 63 110 116 41 52 82 103 90 112 41 46 130 170 139
195 16 40 13 92 -5 129 -20 39 -35 53 -98 95 -27 17 -48 32 -45 33 2 0 11 2
19 3 8 2 59 6 112 10 268 18 254 12 360 147 15 19 47 59 71 89 24 30 163 206
308 390 145 184 268 340 274 347 16 19 27 33 80 103 28 36 52 67 55 70 16 15
234 295 273 350 25 36 50 70 54 75 10 12 81 133 115 195 32 59 103 224 129
297 24 69 74 252 84 308 9 50 13 73 20 105 17 78 48 243 54 292 31 245 -136
487 -374 543 -53 12 -186 20 -195 12z"/>
</g>
</svg>
