<?xml version="1.0" encoding="utf-8"?>
<svg viewBox="265.162 220.008 35.666 32.065" xmlns="http://www.w3.org/2000/svg">
  <g id="BG" transform="matrix(1, 0, 0, 1, 264.995178, 218.040833)">
    <g>
      <path d="m1.063 15.31c3.655 5.872 3.123 11.798 4.885 14.628s7.088 7.76 20.105-.343 9.951-17.286 8.014-20.399c-9.072-14.574-39.477-4.285-33.004 6.114z" fill="#efefef"/>
    </g>
  </g>
  <g id="Color" transform="matrix(1, 0, 0, 1, 264.995178, 218.040833)">
    <g>
      <g>
        <path d="m3.924 26.967h1v2h-1z" fill="#a4afc1" transform="matrix(.707 -.707 .707 .707 -18.48 11.319)"/>
      </g>
      <g>
        <path d="m7.99 31.033h1v2h-1z" fill="#a4afc1" transform="matrix(.707 -.707 .707 .707 -20.164 15.386)"/>
      </g>
      <g>
        <path d="m3.247 31.533h2v1h-2z" fill="#a4afc1" transform="matrix(.707 -.707 .707 .707 -21.407 12.385)"/>
      </g>
    </g>
    <g>
      <path d="m31.383 14.954c-.827 0-1.5-.673-1.5-1.5s.673-1.5 1.5-1.5 1.5.673 1.5 1.5-.673 1.5-1.5 1.5zm0-2c-.275 0-.5.225-.5.5s.225.5.5.5.5-.225.5-.5-.225-.5-.5-.5z" fill="#a4afc1"/>
    </g>
    <g>
      <path d="m29.25 7.75v2.5c0 .552-.448 1-1 1h-20.5c-.552 0-1-.448-1-1v-2.5c0-.552.448-1 1-1h20.5c.552 0 1 .448 1 1z" fill="#f3f3f1"/>
    </g>
    <g>
      <path d="m9 10.25v-2.5c0-.552.448-1 1-1h-2.25c-.552 0-1 .448-1 1v2.5c0 .552.448 1 1 1h2.25c-.552 0-1-.448-1-1z" fill="#d5dbe1"/>
    </g>
    <g>
      <path d="m10.25 20.097h-2.5c-.552 0-1-.448-1-1v-2.5c0-.552.448-1 1-1h2.5c.552 0 1 .448 1 1v2.5c0 .553-.448 1-1 1z" style="fill: rgb(220, 169, 18);"/>
    </g>
    <g>
      <path d="m9 19.097v-2.5c0-.552.448-1 1-1h-2.25c-.552 0-1 .448-1 1v2.5c0 .552.448 1 1 1h2.25c-.552 0-1-.447-1-1z" style="fill: rgb(207, 124, 0);"/>
    </g>
    <g>
      <path d="m19.25 20.097h-2.5c-.552 0-1-.448-1-1v-2.5c0-.552.448-1 1-1h2.5c.552 0 1 .448 1 1v2.5c0 .553-.448 1-1 1z" style="fill: rgb(220, 169, 18);"/>
    </g>
    <g>
      <path d="m18 19.097v-2.5c0-.552.448-1 1-1h-2.25c-.552 0-1 .448-1 1v2.5c0 .552.448 1 1 1h2.25c-.552 0-1-.447-1-1z" style="fill: rgb(207, 124, 0);"/>
    </g>
    <g>
      <path d="m28.25 20.097h-2.5c-.552 0-1-.448-1-1v-2.5c0-.552.448-1 1-1h2.5c.552 0 1 .448 1 1v2.5c0 .553-.448 1-1 1z" style="fill: rgb(220, 169, 18);"/>
    </g>
    <g>
      <path d="m27 19.097v-2.5c0-.552.448-1 1-1h-2.25c-.552 0-1 .448-1 1v2.5c0 .552.448 1 1 1h2.25c-.552 0-1-.447-1-1z" style="fill: rgb(207, 124, 0);"/>
    </g>
    <g>
      <path d="m10.25 28.945h-2.5c-.552 0-1-.448-1-1v-2.5c0-.552.448-1 1-1h2.5c.552 0 1 .448 1 1v2.5c0 .552-.448 1-1 1z" style="fill: rgb(220, 169, 18);"/>
    </g>
    <g>
      <path d="m9 27.945v-2.5c0-.552.448-1 1-1h-2.25c-.552 0-1 .448-1 1v2.5c0 .552.448 1 1 1h2.25c-.552 0-1-.448-1-1z" style="fill: rgb(207, 124, 0);"/>
    </g>
    <g>
      <path d="m19.25 28.945h-2.5c-.552 0-1-.448-1-1v-2.5c0-.552.448-1 1-1h2.5c.552 0 1 .448 1 1v2.5c0 .552-.448 1-1 1z" style="fill: rgb(220, 169, 18);"/>
    </g>
    <g>
      <path d="m18 27.945v-2.5c0-.552.448-1 1-1h-2.25c-.552 0-1 .448-1 1v2.5c0 .552.448 1 1 1h2.25c-.552 0-1-.448-1-1z" style="fill: rgb(207, 124, 0);"/>
    </g>
    <g>
      <path d="m28.25 28.945h-2.5c-.552 0-1-.448-1-1v-2.5c0-.552.448-1 1-1h2.5c.552 0 1 .448 1 1v2.5c0 .552-.448 1-1 1z" style="fill: rgb(220, 169, 18);"/>
    </g>
    <g>
      <path d="m27 27.945v-2.5c0-.552.448-1 1-1h-2.25c-.552 0-1 .448-1 1v2.5c0 .552.448 1 1 1h2.25c-.552 0-1-.448-1-1z" style="fill: rgb(207, 124, 0);"/>
    </g>
  </g>
  <g id="Layer_2" transform="matrix(1, 0, 0, 1, 264.995178, 218.040833)">
    <g>
      <path d="m10.25 30h-2.5c-.965 0-1.75-.785-1.75-1.75v-2.5c0-.965.785-1.75 1.75-1.75h2.5c.965 0 1.75.785 1.75 1.75v2.5c0 .965-.785 1.75-1.75 1.75zm-2.5-4.5c-.138 0-.25.112-.25.25v2.5c0 .138.112.25.25.25h2.5c.138 0 .25-.112.25-.25v-2.5c0-.138-.112-.25-.25-.25z"/>
    </g>
    <g>
      <path d="m19.25 30h-2.5c-.965 0-1.75-.785-1.75-1.75v-2.5c0-.965.785-1.75 1.75-1.75h2.5c.965 0 1.75.785 1.75 1.75v2.5c0 .965-.785 1.75-1.75 1.75zm-2.5-4.5c-.138 0-.25.112-.25.25v2.5c0 .138.112.25.25.25h2.5c.138 0 .25-.112.25-.25v-2.5c0-.138-.112-.25-.25-.25z"/>
    </g>
    <g>
      <path d="m28.25 30h-2.5c-.965 0-1.75-.785-1.75-1.75v-2.5c0-.965.785-1.75 1.75-1.75h2.5c.965 0 1.75.785 1.75 1.75v2.5c0 .965-.785 1.75-1.75 1.75zm-2.5-4.5c-.138 0-.25.112-.25.25v2.5c0 .138.112.25.25.25h2.5c.138 0 .25-.112.25-.25v-2.5c0-.138-.112-.25-.25-.25z"/>
    </g>
    <g>
      <path d="m10.25 21h-2.5c-.965 0-1.75-.785-1.75-1.75v-2.5c0-.965.785-1.75 1.75-1.75h2.5c.965 0 1.75.785 1.75 1.75v2.5c0 .965-.785 1.75-1.75 1.75zm-2.5-4.5c-.138 0-.25.112-.25.25v2.5c0 .138.112.25.25.25h2.5c.138 0 .25-.112.25-.25v-2.5c0-.138-.112-.25-.25-.25z"/>
    </g>
    <g>
      <path d="m19.25 21h-2.5c-.965 0-1.75-.785-1.75-1.75v-2.5c0-.965.785-1.75 1.75-1.75h2.5c.965 0 1.75.785 1.75 1.75v2.5c0 .965-.785 1.75-1.75 1.75zm-2.5-4.5c-.138 0-.25.112-.25.25v2.5c0 .138.112.25.25.25h2.5c.138 0 .25-.112.25-.25v-2.5c0-.138-.112-.25-.25-.25z"/>
    </g>
    <g>
      <path d="m28.25 21h-2.5c-.965 0-1.75-.785-1.75-1.75v-2.5c0-.965.785-1.75 1.75-1.75h2.5c.965 0 1.75.785 1.75 1.75v2.5c0 .965-.785 1.75-1.75 1.75zm-2.5-4.5c-.138 0-.25.112-.25.25v2.5c0 .138.112.25.25.25h2.5c.138 0 .25-.112.25-.25v-2.5c0-.138-.112-.25-.25-.25z"/>
    </g>
    <g>
      <path d="m28.25 12h-20.5c-.965 0-1.75-.785-1.75-1.75v-2.5c0-.965.785-1.75 1.75-1.75h20.5c.965 0 1.75.785 1.75 1.75v2.5c0 .965-.785 1.75-1.75 1.75zm-20.5-4.5c-.138 0-.25.112-.25.25v2.5c0 .138.112.25.25.25h20.5c.138 0 .25-.112.25-.25v-2.5c0-.138-.112-.25-.25-.25z"/>
    </g>
  </g>
</svg>