<svg enable-background="new 0 0 36 36" height="512" viewBox="0 0 36 36" width="512" xmlns="http://www.w3.org/2000/svg"><g id="bg"><g><path d="m8.377 31.833c6.917 0 11.667 3.583 15 3.583s10.333-1.916 10.333-17.249-9.417-17.584-13.083-17.584c-17.167 0-24.5 31.25-12.25 31.25z" fill="#efefef"/></g></g><g id="effect"><g><g><path d="m7.456 3.154h2v1h-2z" fill="#a4afc1" transform="matrix(.707 -.707 .707 .707 -.107 7.05)"/></g><g><path d="m3.39 7.22h2.001v1h-2.001z" fill="#a4afc1" transform="matrix(.707 -.707 .707 .707 -4.173 5.366)"/></g><g><path d="m3.89 2.477h1v2h-1z" fill="#a4afc1" transform="matrix(.707 -.707 .707 .707 -1.173 4.124)"/></g></g><g><path d="m31.289 6.154c-.827 0-1.5-.673-1.5-1.5s.673-1.5 1.5-1.5 1.5.673 1.5 1.5-.673 1.5-1.5 1.5zm0-2c-.276 0-.5.225-.5.5s.224.5.5.5.5-.225.5-.5-.224-.5-.5-.5z" fill="#a4afc1"/></g></g><g id="color"><g><path d="m28.25 20.25h-20.5c-.552 0-1-.448-1-1v-11.5c0-.552.448-1 1-1h20.5c.552 0 1 .448 1 1v11.5c0 .552-.448 1-1 1z" fill="#f3f3f1"/></g><g><path d="m7.75 20.25h20.5c.552 0 1-.448 1-1v-5.09l-3.55-3.16c-.39-.35-.99-.33-1.37.04l-5.62 5.63c-.39.39-1.03.39-1.42 0l-3.61-3.61c-.38-.38-.99-.4-1.39-.03l-5.54 5.12v1.1c0 .552.448 1 1 1z" fill="#2fdf84"/></g></g><g id="shadow"><g><path d="m9 19.25v-11.5c0-.552.448-1 1-1h-2.25c-.552 0-1 .448-1 1v11.5c0 .552.448 1 1 1h2.25c-.552 0-1-.448-1-1z" fill="#d5dbe1"/></g><g><g><path d="m19.54 16.67c.39.39 1.03.39 1.42 0l5.227-5.236-.487-.434c-.39-.35-.99-.33-1.37.04l-5.205 5.215z" fill="#00b871"/></g><g><path d="m9 19.25v-1.1l5.077-4.693-.397-.397c-.38-.38-.99-.4-1.39-.03l-5.54 5.12v1.1c0 .552.448 1 1 1h2.25c-.552 0-1-.448-1-1z" fill="#00b871"/></g></g></g><g id="regular"><g><path d="m6.75 22.5h22.5v1.5h-22.5z"/></g><g><path d="m6.75 25.5h22.5v1.5h-22.5z"/></g><g><path d="m6.75 28.5h22.5v1.5h-22.5z"/></g><g><path d="m28.25 21h-20.5c-.965 0-1.75-.785-1.75-1.75v-11.5c0-.965.785-1.75 1.75-1.75h20.5c.965 0 1.75.785 1.75 1.75v11.5c0 .965-.785 1.75-1.75 1.75zm-20.5-13.5c-.138 0-.25.112-.25.25v11.5c0 .138.112.25.25.25h20.5c.138 0 .25-.112.25-.25v-11.5c0-.138-.112-.25-.25-.25z"/></g><g><path d="m7.259 18.701-1.018-1.101 5.54-5.12c.692-.641 1.76-.62 2.429.05l3.61 3.61c.098.098.262.098.36 0l5.619-5.63c.669-.652 1.72-.68 2.401-.068l3.548 3.158-.997 1.121-3.55-3.16c-.098-.088-.249-.079-.348.017l-5.612 5.622c-.684.684-1.796.685-2.48 0l-3.61-3.61c-.099-.099-.25-.104-.351-.009z"/></g></g></svg>