<svg id="_x31__x2C_5" enable-background="new 0 0 36 36" height="512" viewBox="0 0 36 36" width="512" xmlns="http://www.w3.org/2000/svg"><path d="m27.417 3.914c-6.915.129-11.732-3.365-15.064-3.302s-10.296 2.109-10.009 17.44 9.744 17.404 13.41 17.336c17.163-.321 23.911-31.703 11.663-31.474z" fill="#efefef"/><g fill="#a4afc1"><path d="m9.283 7.783h1v2h-1z" transform="matrix(.707 -.707 .707 .707 -3.345 9.492)"/><path d="m5.217 3.717h1v2h-1z" transform="matrix(.707 -.707 .707 .707 -1.661 5.425)"/><path d="m8.96 4.217h2v1h-2z" transform="matrix(.707 -.707 .707 .707 -.418 8.424)"/><path d="m4.717 8.46h2v1h-2z" transform="matrix(.707 -.707 .707 .707 -4.661 6.667)"/></g><path d="m24.108 13.313-4.678 3.16 3.029 1.565c-2.247 3.704-6.395 5.94-11.131 6.212-2.199-8.429 1.881-14.262 12.26-17.5.665 2.382.81 4.589.52 6.563z" fill="#2fdf84"/><path d="m23.733 7.382c-.052-.212-.085-.417-.145-.632-10.379 3.237-14.459 9.071-12.26 17.5.663-.038 1.311-.124 1.948-.238-1.93-7.78 1.544-13.326 10.457-16.63z" fill="#00b871"/><path d="m11.327 25c-.339 0-.639-.229-.725-.561-2.31-8.852 1.984-15.044 12.762-18.405.194-.06.404-.04.582.057s.31.262.364.457c.674 2.412.856 4.725.541 6.873-.031.209-.147.396-.322.513l-3.631 2.453 1.906.984c.185.095.321.263.378.463.056.2.027.414-.081.592-2.356 3.884-6.632 6.279-11.729 6.573-.016.001-.03.001-.045.001zm11.733-17.292c-9.206 3.076-12.861 8.235-11.155 15.746 4.019-.385 7.406-2.224 9.47-5.133l-2.29-1.183c-.235-.121-.389-.357-.404-.622-.016-.265.109-.518.329-.665l4.399-2.972c.195-1.624.077-3.358-.349-5.171zm1.048 5.605h.01z"/><path d="m28.234 30.311-1.395-1.438c-.371-.382-1.128-.488-1.687-.234l-2.408 1.09c-.818.371-1.83.361-2.639-.028l-2.063-.992c-.486-.234-1.095-.274-1.632-.108l-5.157 1.588-.441-1.434 5.157-1.588c.888-.273 1.907-.204 2.724.19l2.063.992c.411.198.949.204 1.37.014l2.408-1.091c1.143-.519 2.564-.283 3.381.557l1.395 1.438z"/><path d="m4.1 22.75h15.8v1.5h-15.8z" transform="matrix(.595 -.804 .804 .595 -14.03 19.18)"/></svg>