<?xml version="1.0" encoding="utf-8"?>
<svg viewBox="175.421 302.154 35.128 33.268" xmlns="http://www.w3.org/2000/svg">
  <path d="m8.114 5.564c-1.805 6.677-6.504 10.327-7.374 13.545s-.847 10.475 13.955 14.477 19.432-4.501 20.388-8.041c4.481-16.572-23.772-31.807-26.969-19.981z" fill="#efefef" transform="matrix(1, 0, 0, 1, 174.985413, 300.787811)"/>
  <circle cx="17" cy="18" r="10.25" transform="matrix(1, 0, 0, 1, 174.985413, 300.787811)" style="fill: rgb(220, 169, 18);"/>
  <path d="m9 18c0-5.28 3.994-9.625 9.125-10.185-.37-.041-.744-.065-1.125-.065-5.661 0-10.25 4.589-10.25 10.25s4.589 10.25 10.25 10.25c.381 0 .755-.024 1.125-.065-5.131-.56-9.125-4.905-9.125-10.185z" transform="matrix(1, 0, 0, 1, 174.985413, 300.787811)" style="fill: rgb(207, 124, 0);"/>
  <g fill="#a4afc1" transform="matrix(1, 0, 0, 1, 174.985413, 300.787811)">
    <path d="m31.75 17.625h2v1h-2z"/>
    <path d="m29.5 14.125h1v2h-1z"/>
    <path d="m29.5 19.875h1v2h-1z"/>
  </g>
  <path d="m13.75 17.25h14.5v1.5h-14.5z" transform="matrix(1, 0, 0, 1, 174.985413, 300.787811)"/>
  <path d="m17.22 22.53-4-4c-.293-.293-.293-.768 0-1.061l4-4 1.061 1.061-3.47 3.47 3.47 3.47z" transform="matrix(1, 0, 0, 1, 174.985413, 300.787811)"/>
  <path d="m17 29c-6.065 0-11-4.935-11-11s4.935-11 11-11c4.551 0 8.569 2.738 10.238 6.976l-1.396.549c-1.441-3.66-4.912-6.025-8.842-6.025-5.238 0-9.5 4.262-9.5 9.5s4.262 9.5 9.5 9.5c3.93 0 7.401-2.365 8.842-6.024l1.396.549c-1.669 4.237-5.687 6.975-10.238 6.975z" transform="matrix(1, 0, 0, 1, 174.985413, 300.787811)"/>
</svg>