<?xml version="1.0" encoding="utf-8"?>
<svg viewBox="126.606 306.419 35.731 32.18" xmlns="http://www.w3.org/2000/svg">
  <path d="M 161.376 324.864 C 157.594 319.073 157.996 313.137 156.173 310.346 C 154.35 307.555 148.917 302.743 136.08 311.128 C 123.243 319.513 126.508 328.628 128.514 331.697 C 137.902 346.069 168.075 335.12 161.376 324.864 Z" fill="#efefef"/>
  <circle cx="141.472" cy="316.509" r="4.25" style="fill: rgb(220, 169, 18);"/>
  <path d="M 137.222 324.259 L 145.722 324.259 C 147.931 324.259 149.722 326.05 149.722 328.259 L 149.722 331.759 L 133.222 331.759 L 133.222 328.259 C 133.222 326.05 135.013 324.259 137.222 324.259 Z" style="fill: rgb(220, 169, 18);"/>
  <path d="M 139.472 316.509 C 139.472 314.554 140.8 312.924 142.597 312.429 C 142.236 312.329 141.864 312.259 141.472 312.259 C 139.125 312.259 137.222 314.162 137.222 316.509 C 137.222 318.856 139.125 320.759 141.472 320.759 C 141.864 320.759 142.236 320.689 142.597 320.589 C 140.8 320.094 139.472 318.464 139.472 316.509 Z" style="fill: rgb(207, 124, 0);"/>
  <path d="M 139.472 324.259 L 137.222 324.259 C 135.013 324.259 133.222 326.05 133.222 328.259 L 133.222 331.759 L 135.472 331.759 L 135.472 328.259 C 135.472 326.05 137.263 324.259 139.472 324.259 Z" style="fill: rgb(207, 124, 0);"/>
  <g fill="#a4afc1" transform="matrix(1, 0, 0, 1, 126.47187, 304.508759)">
    <path d="m22.618 3.26h1v2h-1z" transform="matrix(.707 -.707 .707 .707 3.757 17.591)"/>
    <path d="m26.684 7.326h1v2h-1z" transform="matrix(.707 -.707 .707 .707 2.075 21.661)"/>
    <path d="m21.942 7.826h2v1h-2z" transform="matrix(.707 -.707 .707 .707 .832 18.661)"/>
    <path d="m26.007 3.76h2v1h-2z" transform="matrix(.707 -.707 .707 .707 4.898 20.345)"/>
  </g>
  <path d="M 141.472 321.509 C 138.715 321.509 136.472 319.266 136.472 316.509 C 136.472 313.752 138.715 311.509 141.472 311.509 C 144.229 311.509 146.472 313.752 146.472 316.509 C 146.472 319.266 144.229 321.509 141.472 321.509 Z M 141.472 313.009 C 139.542 313.009 137.972 314.579 137.972 316.509 C 137.972 318.439 139.542 320.009 141.472 320.009 C 143.402 320.009 144.972 318.439 144.972 316.509 C 144.972 314.579 143.402 313.009 141.472 313.009 Z"/>
  <path d="M 149.722 332.509 L 133.222 332.509 C 132.808 332.509 132.472 332.173 132.472 331.759 L 132.472 328.259 C 132.472 325.64 134.603 323.509 137.222 323.509 L 145.722 323.509 C 148.341 323.509 150.472 325.64 150.472 328.259 L 150.472 331.759 C 150.472 332.173 150.136 332.509 149.722 332.509 Z M 133.972 331.009 L 148.972 331.009 L 148.972 328.259 C 148.972 326.467 147.514 325.009 145.722 325.009 L 137.222 325.009 C 135.43 325.009 133.972 326.467 133.972 328.259 Z"/>
  <path d="M 147.222 320.259 L 155.722 320.259 L 155.722 321.759 L 147.222 321.759 Z"/>
  <path d="M 152.252 325.539 L 151.192 324.479 L 154.662 321.009 L 151.192 317.539 L 152.253 316.478 L 156.253 320.478 C 156.546 320.771 156.546 321.246 156.253 321.539 Z"/>
</svg>